<?xml version="1.0" encoding="UTF-8"?>
<!DOCTYPE svg PUBLIC "-//W3C//DTD SVG 1.1//EN" "http://www.w3.org/Graphics/SVG/1.1/DTD/svg11.dtd">
<!-- Creator: CorelDRAW 2018 (64-Bit) -->
<svg xmlns="http://www.w3.org/2000/svg" xml:space="preserve" width="173.99mm" height="173.99mm" version="1.1" style="shape-rendering:geometricPrecision; text-rendering:geometricPrecision; image-rendering:optimizeQuality; fill-rule:evenodd; clip-rule:evenodd"
viewBox="0 0 5201.32 5201.32"
 xmlns:xlink="http://www.w3.org/1999/xlink">
 <defs>
  <style type="text/css">
   <![CDATA[
    .fil4 {fill:none}
    .fil1 {fill:#3E75C3}
    .fil0 {fill:#44B78B}
    .fil3 {fill:#3E75C3;fill-rule:nonzero}
    .fil2 {fill:#44B78B;fill-rule:nonzero}
   ]]>
  </style>
 </defs>
 <g id="Layer_x0020_1">
  <metadata id="CorelCorpID_0Corel-Layer"/>
  <g id="_2227954524592">
   <path class="fil0" d="M2082.06 1939.39c63.63,0.06 127.21,0.02 190.78,0.02 54.03,0 137.82,-10.85 175.15,17.3 41.97,31.64 30.88,97.81 30.88,161.07 0,64.6 -0.03,129.2 0,193.8 0.04,100.38 -11.05,281.21 16.63,365.79 66.57,203.48 318.49,285.19 494.47,154.09 164.93,-122.87 180.56,-372.96 -2.47,-512.25 -90.41,-68.8 -192.32,-66.81 -323.97,-63.97l-0.29 161.84c104.71,2.6 195.52,-14.41 252.46,51.45 54.36,62.89 52.09,160.73 -4.75,216.88 -56.51,55.83 -156.31,63.27 -220.23,8.12 -64.86,-55.95 -49.62,-152.61 -49.68,-255.1 -0.06,-101.01 -0,-202.02 -0.01,-303.03 -0.01,-122.4 22.73,-273.23 -121.21,-338.59 -46.03,-20.9 -76.09,-19.61 -130.71,-19.6 -101.84,0.01 -203.83,-0.53 -305.65,0.03l-1.41 162.16z"/>
   <polygon class="fil1" points="2159.46,2416.88 2456.09,2417.37 2456.61,2254.98 2160.13,2255.04 "/>
   <g>
    <path class="fil2" d="M1058.78 3420.44l0 -126.77 108.04 0 0 -26.91 -108.04 0 0 -85.03 130.28 0 0 -28.86 -163.82 0 0 267.58 33.54 0zm338.96 -267.58l-28.09 0 0 169.28c0,18.33 0,38.23 -12.87,53.44 -11.31,13.65 -30.82,19.11 -47.98,19.11 -18.33,0 -40.96,-4.68 -51.88,-20.67 -9.75,-14.04 -10.14,-35.89 -10.14,-51.88l0 -169.28 -33.54 0 0 169.28c0,27.69 1.56,54.61 21.06,76.45 17.94,20.28 45.64,25.75 71.77,25.75 27.3,0 54.22,-8.19 72.16,-29.64 17.94,-21.46 19.5,-46.03 19.5,-72.55l0 -169.28zm256.26 267.58l-52.66 -124.04c31.21,-8.58 49.93,-37.05 49.93,-68.65 0,-22.62 -10.53,-44.85 -28.47,-58.51 -17.94,-13.65 -39.01,-16.38 -60.85,-16.38l-100.24 0 0 267.58 33.54 0 0 -115.85 74.11 0 49.54 115.85 35.1 0zm-158.75 -143.15l0 -95.56 66.7 0c14.04,0 25.35,0.39 37.06,8.58 12.87,8.58 18.72,21.45 18.72,37.05 0,12.87 -4.29,25.74 -13.65,35.1 -13.26,13.65 -28.09,14.82 -46.03,14.82l-62.8 0zm421.65 143.15l-93.22 -173.96 72.16 -93.61 -36.28 0 -120.53 155.24 0 -155.24 -33.54 0 0 267.58 33.54 0 0 -71.38 61.24 -76.06 79.57 147.44 37.06 0zm125.21 -267.58l-38.61 0 -86.59 267.58 28.08 0 23.79 -78.01 99.07 0 26.91 78.01 34.32 0 -86.98 -267.58zm18.33 164.21l-82.3 0 41.34 -128.33 40.96 128.33zm299.17 -164.21l-28.08 0 0 218.04 -126.77 -218.04 -42.13 0 0 267.58 28.09 0 0 -233.25 136.13 233.25 32.76 0 0 -267.58z"/>
    <path class="fil3" d="M2415 3152.87l0 267.58 119.74 0c23.02,0 49.15,0 68.65,-14.43 18.72,-13.65 32.76,-34.32 32.76,-57.73 0,-34.72 -22.62,-60.07 -55.78,-66.7l0 -0.78c28.09,-7.02 48.37,-27.3 48.37,-57.73 0,-25.35 -11.31,-44.86 -32.76,-58.51 -18.33,-11.7 -40.18,-11.7 -61.24,-11.7l-119.74 0zm62.41 47.59l37.84 0c10.53,0 26.91,-1.17 35.88,3.9 8.58,5.07 13.26,14.43 13.26,24.18 0,8.97 -3.9,18.72 -11.31,24.18 -9.36,7.02 -22.23,6.24 -33.16,6.24l-42.52 0 0 -58.51zm0 106.1l46.03 0c10.14,0 22.62,0 31.59,5.07 8.97,5.07 15.21,15.6 15.21,25.74 0,10.92 -5.07,21.84 -14.04,27.69 -9.75,6.63 -24.18,5.85 -35.5,5.85l-43.3 0 0 -64.36zm297.22 117.8c36.27,0 67.87,-14.82 88.54,-45.25 17.16,-25.35 25.35,-62.41 25.35,-92.83 0,-32.38 -9.75,-70.21 -28.86,-96.34 -21.45,-29.25 -49.54,-40.96 -85.03,-40.96 -79.18,0 -114.67,66.31 -114.67,137.3 0,33.54 8.58,68.26 28.08,95.95 21.06,29.65 50.32,42.13 86.59,42.13zm0 -224.28c19.5,0 30.82,8.19 38.61,26.13 7.8,17.94 9.75,40.96 9.75,60.46 0,17.55 -1.95,39.79 -8.19,56.17 -7.02,19.89 -18.72,30.42 -40.18,30.42 -44.08,0 -49.15,-53.44 -49.15,-86.98 0,-16.77 2.34,-39.79 8.58,-55.78 7.41,-19.5 19.11,-30.43 40.57,-30.43zm342.47 11.7c-16.38,-46.42 -54.61,-62.8 -101.41,-62.8 -24.57,0 -47.59,5.46 -67.09,21.84 -19.11,15.99 -28.86,37.83 -28.86,62.8 0,58.51 46.81,72.55 94.39,82.3 16.38,3.51 46.81,7.8 46.81,30.03 0,22.23 -23.79,28.86 -41.74,28.86 -27.69,0 -47.97,-9.75 -55.78,-37.83l-57.73 13.26c12.09,52.27 57.73,74.11 108.05,74.11 26.91,0 56.17,-5.07 77.62,-21.84 20.67,-15.99 33.16,-40.96 33.16,-67.09 0,-26.52 -13.26,-48.76 -35.1,-63.19 -18.72,-12.48 -47.98,-17.94 -69.82,-22.62 -15.21,-2.73 -38.62,-7.41 -38.62,-26.91 0,-20.67 20.28,-24.96 37.06,-24.96 23.79,0 38.23,8.97 46.03,31.59l53.05 -17.55zm223.89 -58.9l-197.37 0 0 53.05 67.87 0 0 214.53 62.41 0 0 -214.53 67.09 0 0 -53.05zm143.54 0l-72.55 0 -85.81 267.58 55 0 16.77 -55 86.59 0 16.38 55 67.48 0 -83.86 -267.58zm-71.38 163.43l28.47 -94 28.47 94 -56.95 0zm390.44 -163.43l-48.37 0 0 157.19 -0.78 0 -89.32 -157.19 -67.48 0 0 267.58 48.37 0 0 -179.81 1.56 0 102.58 179.81 53.44 0 0 -267.58zm267.97 99.46c-7.02,-64.36 -41.34,-103.36 -108.43,-103.36 -80.35,0 -120.14,63.58 -120.14,137.69 0,72.94 38.61,137.69 118.18,137.69 61.63,0 103.75,-36.28 110.38,-97.51l-60.85 -3.9c-3.51,25.74 -17.16,50.32 -46.42,50.32 -47.2,0 -51.49,-47.19 -51.49,-83.86 0,-32.38 4.29,-90.1 48.37,-90.1 34.32,0 44.47,27.69 44.86,57.34l65.53 -4.29zm104.53 -99.46l-62.41 0 0 267.58 62.41 0 0 -267.58z"/>
   </g>
  </g>
  <polygon class="fil4" points="-0,0 5201.32,0 5201.32,5201.32 -0,5201.32 "/>
 </g>
</svg>
